<?xml version="1.0" standalone="no"?>
<!DOCTYPE svg PUBLIC "-//W3C//DTD SVG 20010904//EN"
 "http://www.w3.org/TR/2001/REC-SVG-20010904/DTD/svg10.dtd">
<svg version="1.0" xmlns="http://www.w3.org/2000/svg"
 width="292.000000pt" height="288.000000pt" viewBox="0 0 292.000000 288.000000"
 preserveAspectRatio="xMidYMid meet">
<metadata>
Created by potrace 1.16, written by Peter Selinger 2001-2019
</metadata>
<g transform="translate(0.000000,288.000000) scale(0.100000,-0.100000)"
fill="#000000" stroke="none">
<path d="M1330 2804 c-86 -11 -202 -39 -295 -71 -476 -165 -834 -597 -905
-1093 -16 -109 -14 -311 4 -422 67 -413 341 -791 715 -986 198 -103 400 -152
631 -152 162 0 287 19 427 65 483 160 822 551 920 1060 22 119 22 346 -1 473
-52 284 -180 528 -385 732 -193 191 -408 309 -680 371 -84 20 -347 33 -431 23z
m366 -109 c510 -88 912 -475 1026 -987 46 -206 23 -558 -43 -665 -41 -67 -234
-202 -393 -276 -165 -78 -424 -82 -601 -10 -195 80 -341 241 -404 447 -12 37
-21 83 -21 101 0 55 -17 49 -42 -12 -19 -49 -23 -76 -23 -178 0 -102 4 -129
23 -177 119 -297 524 -547 889 -548 l88 -1 -40 -25 c-63 -39 -217 -112 -266
-125 -56 -15 -125 3 -251 66 -280 140 -482 380 -534 635 -20 100 -15 268 11
370 44 169 154 339 290 448 49 39 37 40 -52 4 -359 -146 -548 -425 -569 -842
-8 -144 6 -303 40 -463 12 -59 18 -107 13 -107 -14 0 -146 94 -202 144 l-50
44 -3 145 c-6 228 26 406 109 608 130 313 411 569 737 670 39 13 69 26 66 31
-7 11 -184 10 -269 -2 -208 -30 -428 -121 -592 -245 -145 -109 -317 -322 -373
-460 -35 -86 -45 -54 -44 150 1 134 5 190 22 265 57 260 163 453 352 642 192
191 408 305 669 352 105 19 328 20 437 1z"/>
<path d="M1405 2411 l-40 -7 51 -12 c81 -18 183 -59 257 -103 64 -38 207 -162
207 -179 0 -5 -16 -17 -35 -29 -64 -37 -95 -153 -60 -220 17 -35 63 -75 119
-103 l41 -22 -59 -8 c-152 -20 -298 -96 -396 -206 -51 -56 -123 -189 -136
-247 -6 -30 -6 -30 42 17 51 48 165 131 171 124 2 -2 -8 -37 -22 -79 -28 -85
-33 -220 -11 -292 l13 -40 12 45 c19 71 86 200 129 252 93 111 229 198 367
233 77 20 231 19 314 -1 84 -20 199 -75 235 -111 41 -40 66 -96 66 -145 0 -62
19 -35 32 45 23 139 -24 272 -138 396 -73 78 -250 217 -290 227 -46 12 -103
-3 -139 -35 -27 -23 -45 -31 -74 -31 -39 0 -59 15 -95 73 -9 15 -33 35 -51 44
-19 9 -35 20 -35 25 0 9 56 0 82 -14 10 -4 35 -5 57 -2 30 5 51 1 86 -16 38
-18 55 -21 100 -15 30 3 57 10 59 14 7 10 -94 137 -147 184 -115 104 -285 192
-427 222 -82 17 -231 26 -285 16z"/>
<path d="M970 2286 c-90 -19 -187 -58 -272 -108 -100 -58 -241 -201 -295 -298
-41 -72 -109 -257 -100 -267 3 -2 41 32 84 77 190 199 449 340 730 397 124 25
393 23 516 -4 48 -10 87 -17 87 -14 -1 3 -28 27 -61 53 -72 57 -198 121 -294
149 -91 27 -301 35 -395 15z"/>
</g>
</svg>
